<svg width="199" height="49" viewBox="0 0 199 49" fill="none" xmlns="http://www.w3.org/2000/svg">
<path d="M83.6853 26.3356H81.0852L77.5853 18.3853C77.4812 18.1584 77.348 17.8479 77.1824 17.4572C77.0168 17.0665 76.8734 16.6315 76.6873 16.1572C76.5012 15.6829 76.3049 15.1881 76.0983 14.6729C75.8917 14.1577 75.6971 13.5998 75.511 13.0641C75.511 13.5998 75.5008 14.1372 75.4803 14.6729C75.4598 15.2086 75.4701 15.6829 75.4496 16.1572C75.4291 16.6315 75.4069 17.0239 75.3864 17.3941V18.2301L75.0774 26.3356H71.61L72.8477 5.33049H75.7278L81.0203 18.4467C81.2058 18.921 81.4124 19.4368 81.6401 19.9941C81.8882 20.5503 82.1158 21.0968 82.323 21.6337C82.529 21.0957 82.7458 20.5594 82.9734 20.0248C83.2011 19.4664 83.4179 18.9403 83.6239 18.4467L88.9471 5.33049H91.7641L93.0035 26.3356H89.5668L89.2254 18.3171C89.2049 17.8018 89.1736 17.0699 89.1315 16.1214C89.111 15.1523 89.0905 14.1725 89.07 13.1818C88.8845 13.6982 88.6882 14.214 88.481 14.7292C88.2966 15.2444 88.1213 15.729 87.9552 16.1828C87.7845 16.6366 87.6359 17.0495 87.4908 17.4214C87.3457 17.7933 87.233 18.0799 87.1494 18.2864L83.6853 26.3356Z" fill="#343433"/>
<path d="M109.246 20.0863C109.242 20.6574 109.284 21.2279 109.371 21.7924C109.473 22.3042 109.578 22.8245 109.68 23.3398C109.782 23.855 109.917 24.3395 110.021 24.8548C110.128 25.4171 110.18 25.9885 110.175 26.5608C110.175 28.7457 109.618 30.375 108.504 31.4487C107.389 32.5224 105.883 33.0587 103.985 33.0575C103.361 33.0566 102.739 32.9943 102.127 32.8716C101.508 32.7681 100.93 32.6441 100.392 32.4996C99.9422 32.3775 99.4983 32.2329 99.0625 32.0663C98.6904 31.923 98.4428 31.8189 98.3182 31.7575L99.1855 29.067C99.474 29.1899 99.795 29.3144 100.145 29.4372C100.495 29.5601 100.888 29.7153 101.26 29.8399C101.656 29.9644 102.059 30.0675 102.467 30.1487C102.864 30.2303 103.268 30.272 103.674 30.2732C104.829 30.2732 105.665 29.9223 106.182 29.2206C106.697 28.5381 106.955 27.6516 106.955 26.5608C106.945 25.5074 106.735 24.4655 106.337 23.4899C105.758 24.5818 104.984 25.3654 104.015 25.8409C103.079 26.2924 102.052 26.5258 101.012 26.5233C99.3812 26.5233 98.2152 26.049 97.5141 25.1004C96.8312 24.1496 96.4897 22.8501 96.4897 21.2021V10.9316H100.019V21.1082C100.019 21.9749 100.173 22.6573 100.483 23.1555C100.793 23.6537 101.319 23.9011 102.062 23.8977C102.496 23.8861 102.921 23.769 103.3 23.5564C103.758 23.3266 104.167 23.0116 104.507 22.6283C104.889 22.1997 105.193 21.7078 105.405 21.1748C105.657 20.5849 105.784 19.9495 105.779 19.3083V10.9298H109.402L109.246 20.0863Z" fill="#343433"/>
<path d="M111.602 10.9299H114.389L115.008 7.30961L117.911 6.6596V10.9248H121.718L121.291 13.4344H117.917V22.5926C117.917 23.1283 118.063 23.4797 118.351 23.6435C118.649 23.7903 118.978 23.8645 119.311 23.8602C119.864 23.858 120.416 23.7852 120.951 23.6435C121.212 23.5842 121.471 23.5119 121.725 23.4268L122.314 25.7471L122.035 25.8409C121.763 25.9518 121.483 26.0447 121.199 26.119C120.78 26.2133 120.357 26.2856 119.93 26.3357C119.408 26.4213 118.88 26.4624 118.351 26.4585C117.809 26.4627 117.268 26.4009 116.741 26.2742C116.293 26.1627 115.872 25.9625 115.503 25.6856C115.147 25.3912 114.862 25.0211 114.667 24.6023C114.467 24.0908 114.372 23.5441 114.389 22.9952V13.4412H111.602V10.9299Z" fill="#343433"/>
<path d="M131.395 14.1458C131.006 14.1502 130.624 14.2461 130.28 14.4256C129.902 14.6153 129.565 14.878 129.289 15.1984C128.984 15.5332 128.743 15.9212 128.578 16.3432C128.386 16.8251 128.292 17.3398 128.299 17.8582V26.3356H124.769V18.5389C124.786 17.5023 124.703 16.4665 124.521 15.4458C124.397 14.7512 124.221 14.0669 123.995 13.3985C123.811 12.8842 123.561 12.3957 123.253 11.9449L126.039 10.8309C126.252 11.0968 126.448 11.3761 126.626 11.6669C126.812 11.9977 126.978 12.3396 127.123 12.6905C127.304 13.1396 127.438 13.6061 127.524 14.0826C127.937 12.8873 128.536 12.0342 129.32 11.5235C129.902 11.1381 130.56 10.8833 131.249 10.7767C131.938 10.6701 132.643 10.7142 133.313 10.9059C133.727 11.0083 133.923 11.0595 133.902 11.0595L132.911 14.4938C132.792 14.4315 132.668 14.3796 132.54 14.3386C132.177 14.1919 131.786 14.1261 131.395 14.1458Z" fill="#343433"/>
<path d="M147.426 18.8801C147.412 19.9255 147.485 20.9703 147.642 22.0039C147.77 22.6859 147.946 23.358 148.168 24.0153C148.343 24.5341 148.594 25.0241 148.913 25.4689L146.157 26.583C145.873 26.2925 145.623 25.9695 145.414 25.6207C145.207 25.2437 145.031 24.8506 144.887 24.4452C144.71 23.9042 144.606 23.3419 144.578 22.7733C144.226 24.0119 143.657 24.9508 142.871 25.59C142.106 26.2076 141.063 26.517 139.743 26.5181C138.868 26.5383 137.999 26.3579 137.204 25.9909C136.503 25.6211 135.899 25.0916 135.441 24.4452C134.939 23.7035 134.582 22.8742 134.387 22.0005C134.15 20.9659 134.036 19.9072 134.046 18.8459C134.034 17.7433 134.212 16.6469 134.572 15.6044C134.911 14.6466 135.428 13.7615 136.096 12.9958C136.773 12.2517 137.601 11.66 138.524 11.26C139.448 10.86 140.446 10.6608 141.452 10.6756C142.095 10.6775 142.736 10.7289 143.371 10.8291C144.054 10.9133 144.683 11.0066 145.259 11.1089C145.836 11.2113 146.323 11.3137 146.714 11.4177C147.105 11.5218 147.364 11.5508 147.426 11.573V18.8801ZM140.337 24.046C140.859 24.0435 141.363 23.8575 141.761 23.5206C142.217 23.1412 142.595 22.6778 142.876 22.1557C143.217 21.5461 143.468 20.8897 143.618 20.2074C143.804 19.4687 143.897 18.7101 143.897 17.9486V13.4974C143.691 13.4337 143.381 13.3615 142.968 13.2808C142.601 13.2024 142.228 13.1607 141.853 13.1562C141.179 13.132 140.509 13.2701 139.9 13.5588C139.41 13.8222 138.995 14.2055 138.693 14.6729C138.365 15.1929 138.144 15.7728 138.043 16.379C137.913 17.0933 137.851 17.8181 137.856 18.544C137.856 19.2673 137.877 19.9583 137.918 20.6168C137.95 21.2149 138.056 21.8068 138.232 22.3792C138.388 22.847 138.653 23.271 139.005 23.6161C139.381 23.9192 139.855 24.0723 140.337 24.046Z" fill="#343433"/>
<path d="M160.693 26.3339V16.3415C160.693 15.4748 160.538 14.7838 160.228 14.2686C159.919 13.7329 159.393 13.465 158.651 13.465C158.163 13.4683 157.683 13.5957 157.258 13.8353C156.796 14.0869 156.394 14.4362 156.081 14.8589C155.703 15.3644 155.41 15.9287 155.214 16.5291C154.999 17.2303 154.895 17.9608 154.905 18.6941V26.3356H151.376V18.5389C151.391 17.5014 151.305 16.465 151.12 15.4441C150.996 14.7495 150.82 14.0652 150.594 13.3968C150.41 12.8825 150.161 12.394 149.852 11.9432L152.638 10.8292C152.869 11.0888 153.077 11.3685 153.258 11.6651C153.449 12.0135 153.615 12.3756 153.753 12.7485C153.931 13.209 154.066 13.6854 154.154 14.1714C154.692 12.9327 155.466 12.0456 156.476 11.5099C157.45 10.9635 158.548 10.6763 159.665 10.6756C161.258 10.6756 162.404 11.1601 163.102 12.1292C163.824 13.0778 164.186 14.3664 164.186 15.9951V26.3288L160.693 26.3339Z" fill="#343433"/>
<path d="M179.14 26.583C179.036 26.5021 178.942 26.4087 178.861 26.3049C178.681 26.0677 178.516 25.8198 178.366 25.5627C178.174 25.1933 178.009 24.8107 177.871 24.418C177.694 23.8873 177.59 23.3353 177.56 22.7767C177.21 24.0153 176.641 24.9542 175.853 25.5934C175.089 26.211 174.047 26.5204 172.725 26.5215C171.851 26.5417 170.983 26.3613 170.188 25.9944C169.487 25.6245 168.882 25.095 168.423 24.4487C167.922 23.7072 167.565 22.8777 167.371 22.0039C167.135 20.9693 167.02 19.9106 167.03 18.8494C167.019 17.7468 167.197 16.6506 167.556 15.6078C167.894 14.6489 168.411 13.7627 169.079 12.9959C169.756 12.2517 170.583 11.66 171.507 11.26C172.43 10.86 173.428 10.6608 174.434 10.6756C174.805 10.6756 175.197 10.6961 175.611 10.737C176.044 10.778 176.464 10.8291 176.879 10.8923V3.8974L180.41 4.51499V18.8698C180.395 19.9051 180.467 20.9397 180.625 21.9629C180.737 22.6355 180.903 23.2979 181.122 23.9437C181.251 24.3195 181.417 24.6818 181.617 25.0253C181.724 25.1601 181.817 25.3052 181.895 25.4587L179.14 26.583ZM173.319 24.0239C173.841 24.0214 174.345 23.8353 174.743 23.4984C175.199 23.1194 175.578 22.6559 175.858 22.1335C176.202 21.5222 176.454 20.8633 176.606 20.1784C176.792 19.451 176.886 18.7029 176.884 17.952V13.4974C176.677 13.4337 176.367 13.3615 175.955 13.2808C175.589 13.2025 175.217 13.1607 174.842 13.1562C174.169 13.1324 173.5 13.2705 172.891 13.5589C172.401 13.8222 171.986 14.2055 171.684 14.6729C171.357 15.1933 171.136 15.7731 171.033 16.379C170.905 17.0934 170.843 17.8181 170.847 18.544C170.847 19.2674 170.868 19.9583 170.911 20.6168C170.939 21.2146 171.041 21.8065 171.214 22.3792C171.376 22.8356 171.64 23.2484 171.988 23.5854C172.363 23.8879 172.838 24.041 173.319 24.0153V24.0239Z" fill="#343433"/>
<path d="M189.112 10.5579C189.705 10.5571 190.297 10.6194 190.877 10.7439C191.402 10.8523 191.919 10.9971 192.424 11.1772C192.962 11.3626 193.458 11.5582 193.911 11.7641L192.857 14.1782C192.445 13.9928 192.033 13.8273 191.619 13.6817C191.233 13.5482 190.841 13.4343 190.443 13.3405C190.042 13.2189 189.625 13.1563 189.205 13.1545C188.768 13.1445 188.337 13.2631 187.966 13.4957C187.802 13.6093 187.671 13.7633 187.584 13.9426C187.497 14.1219 187.458 14.3206 187.471 14.5194C187.471 15.6943 188.327 16.6122 190.04 17.273C190.636 17.5002 191.216 17.7687 191.775 18.0765C192.259 18.3211 192.698 18.6453 193.074 19.0354C193.443 19.4034 193.729 19.8468 193.911 20.3354C194.109 20.8806 194.204 21.458 194.191 22.038C194.189 22.6266 194.062 23.2081 193.818 23.7441C193.584 24.3114 193.224 24.8186 192.767 25.2284C192.271 25.6863 191.691 26.0438 191.059 26.281C190.335 26.5363 189.571 26.6594 188.803 26.6444C188.124 26.645 187.448 26.5619 186.79 26.397C186.182 26.2679 185.582 26.1027 184.994 25.9023C184.57 25.7551 184.156 25.5795 183.756 25.3768L183.291 25.1601L184.437 22.5618L184.84 22.7768C185.17 22.9737 185.512 23.1498 185.864 23.3039C186.277 23.4899 186.718 23.6639 187.196 23.8294C187.617 23.9654 188.055 24.0384 188.497 24.0461C189.22 24.0461 189.756 23.9016 190.105 23.6127C190.276 23.476 190.413 23.3014 190.504 23.1026C190.596 22.9039 190.64 22.6866 190.633 22.468C190.63 21.9258 190.419 21.4054 190.044 21.0144C189.673 20.5594 189.104 20.1881 188.336 19.9003C186.743 19.3032 185.597 18.6208 184.9 17.853C184.217 17.0899 183.875 16.1003 183.875 14.8845C183.873 14.3135 184.011 13.7506 184.277 13.245C184.541 12.7132 184.91 12.2399 185.361 11.8528C185.852 11.4301 186.419 11.1047 187.032 10.894C187.701 10.6636 188.404 10.5499 189.112 10.5579Z" fill="#343433"/>
<path fill-rule="evenodd" clip-rule="evenodd" d="M93.5395 41.238H67.7413V40.8661H93.5395V41.238Z" fill="#686363"/>
<path d="M99.1974 43.0515V40.7483L97.6233 37.7115H98.3557L98.9942 39.0525L99.5064 40.1171H99.5354L100.681 37.7115H101.413L99.8325 40.7483V43.0515H99.1974Z" fill="#686363"/>
<path d="M103.194 43.1095C102.896 43.1158 102.603 43.0267 102.359 42.8553C102.115 42.6739 101.926 42.4282 101.813 42.1456C101.678 41.8048 101.613 41.4406 101.62 41.0742C101.612 40.7155 101.678 40.3591 101.813 40.0267C101.926 39.7482 102.116 39.5071 102.359 39.3306C102.605 39.1623 102.897 39.0752 103.194 39.0815C103.489 39.0755 103.778 39.1627 104.02 39.3306C104.263 39.5068 104.452 39.7481 104.563 40.0267C104.701 40.3583 104.768 40.7152 104.76 41.0742C104.768 41.4421 104.701 41.8077 104.563 42.149C104.452 42.4317 104.264 42.6776 104.02 42.8587C103.779 43.0279 103.489 43.1158 103.194 43.1095ZM103.194 42.5448C103.335 42.5455 103.473 42.5089 103.595 42.4388C103.717 42.3687 103.819 42.2675 103.889 42.1456C104.078 41.8214 104.169 41.4491 104.15 41.0742C104.168 40.7102 104.077 40.349 103.889 40.0369C103.817 39.9167 103.716 39.8173 103.594 39.7488C103.472 39.6802 103.334 39.6449 103.194 39.6462C103.053 39.6444 102.914 39.6795 102.79 39.748C102.667 39.8165 102.564 39.9161 102.491 40.0369C102.302 40.349 102.211 40.7102 102.229 41.0742C102.211 41.448 102.302 41.8189 102.491 42.1422C102.562 42.2654 102.664 42.3676 102.788 42.4383C102.912 42.5091 103.052 42.5458 103.194 42.5448Z" fill="#686363"/>
<path d="M107.073 43.1096C106.86 43.1112 106.652 43.052 106.472 42.939C106.291 42.8241 106.144 42.6627 106.047 42.4715C105.94 42.2601 105.887 42.0259 105.891 41.7891V39.1396H106.501V41.784C106.495 41.9849 106.563 42.181 106.692 42.335C106.759 42.4089 106.842 42.4672 106.934 42.5059C107.026 42.5445 107.125 42.5625 107.225 42.5585C107.363 42.5602 107.499 42.5268 107.621 42.4613C107.739 42.3959 107.838 42.3006 107.908 42.1849C107.98 42.0663 108.017 41.9297 108.015 41.7908V39.1396H108.625V42.132C108.624 42.2199 108.651 42.3057 108.702 42.3777C108.758 42.456 108.834 42.5183 108.922 42.5585L108.683 43.1096C108.52 43.0309 108.378 42.9138 108.27 42.7684C108.186 42.6527 108.134 42.5176 108.118 42.376L108.248 42.521H107.995L108.212 42.3845C108.109 42.5936 107.95 42.7706 107.754 42.8963C107.554 43.0351 107.316 43.1095 107.073 43.1096Z" fill="#686363"/>
<path d="M110.023 43.0516V39.1396H110.633V39.6684H110.733L110.545 39.9073C110.594 39.7548 110.671 39.6126 110.771 39.4876C110.868 39.3631 110.992 39.2617 111.133 39.1907C111.288 39.1153 111.46 39.0779 111.633 39.0816C111.701 39.0815 111.769 39.0872 111.836 39.0986C111.886 39.1026 111.935 39.1141 111.981 39.1327L111.73 39.7401C111.699 39.7299 111.666 39.7242 111.633 39.723C111.452 39.69 111.266 39.7259 111.111 39.8237C110.965 39.9057 110.847 40.0277 110.769 40.1751C110.669 40.3724 110.621 40.5922 110.631 40.8132V43.0516H110.023Z" fill="#686363"/>
<path d="M116.198 43.1095C115.994 43.1095 115.792 43.0737 115.601 43.0038C115.411 42.9363 115.232 42.8427 115.068 42.7257C114.916 42.6188 114.78 42.492 114.662 42.3486L114.937 41.6969C115.035 41.8417 115.15 41.975 115.278 42.0944C115.406 42.2149 115.549 42.3176 115.705 42.3998C115.849 42.4728 116.008 42.5108 116.169 42.5107C116.321 42.5114 116.471 42.4701 116.601 42.3913C116.734 42.3104 116.844 42.1964 116.92 42.0603C117.001 41.9142 117.042 41.7495 117.04 41.5826C117.044 41.4269 117.002 41.2734 116.92 41.1407C116.833 41.0072 116.716 40.8957 116.579 40.8149C116.412 40.7107 116.234 40.6232 116.05 40.5538C115.806 40.4605 115.576 40.3336 115.367 40.1768C115.185 40.0396 115.034 39.8651 114.925 39.665C114.82 39.4522 114.767 39.2177 114.77 38.9805C114.773 38.7434 114.832 38.5103 114.942 38.3001C115.057 38.0995 115.225 37.9344 115.428 37.8224C115.646 37.7051 115.891 37.6463 116.138 37.6518C116.4 37.6509 116.658 37.7092 116.893 37.8224C117.127 37.9313 117.335 38.0896 117.503 38.2865L117.255 38.8802C117.16 38.7528 117.05 38.6381 116.925 38.539C116.811 38.4453 116.682 38.3694 116.545 38.3138C116.421 38.2619 116.288 38.2347 116.154 38.2336C116.052 38.2296 115.951 38.2477 115.857 38.2866C115.763 38.3255 115.678 38.3842 115.609 38.4588C115.473 38.6097 115.401 38.807 115.406 39.0098C115.402 39.1255 115.423 39.2408 115.467 39.3477C115.512 39.4546 115.579 39.5506 115.664 39.6292C115.872 39.8028 116.109 39.939 116.364 40.0318C116.59 40.1174 116.807 40.2278 117.009 40.3611C117.205 40.4869 117.37 40.6554 117.491 40.8541C117.621 41.0737 117.685 41.3259 117.677 41.5809C117.683 41.8589 117.612 42.1332 117.474 42.3742C117.346 42.5968 117.16 42.7807 116.936 42.9065C116.712 43.0382 116.458 43.1083 116.198 43.1095Z" fill="#686363"/>
<path d="M120.034 43.1096C119.894 43.118 119.753 43.0939 119.623 43.0392C119.493 42.9844 119.377 42.9005 119.285 42.7939C119.105 42.5612 119.014 42.2722 119.027 41.9784V37.9726H119.637V41.9204C119.627 42.0832 119.67 42.2447 119.76 42.3811C119.807 42.4512 119.877 42.503 119.958 42.5282C120.039 42.5533 120.126 42.5501 120.205 42.5193C120.25 42.503 120.293 42.4824 120.333 42.4579L120.557 42.9936C120.498 43.0174 120.424 43.043 120.337 43.0703C120.238 43.0977 120.136 43.1109 120.034 43.1096ZM118.426 39.6974V39.1327H120.463V39.6974H118.426Z" fill="#686363"/>
<path d="M121.856 44.6314C121.741 44.6307 121.626 44.6146 121.515 44.5837C121.429 44.5618 121.345 44.5315 121.265 44.4932L121.491 43.9422C121.549 43.9801 121.612 44.0104 121.678 44.0326C121.736 44.0571 121.797 44.071 121.859 44.0735C121.913 44.0756 121.966 44.0667 122.016 44.0474C122.066 44.028 122.112 43.9986 122.15 43.9609C122.223 43.8845 122.281 43.7947 122.32 43.6965C122.359 43.6097 122.392 43.5202 122.418 43.4286L122.607 42.7462V43.2171L121.158 39.1464H121.824L122.804 42.2327H122.833L123.043 41.5008L123.708 39.1464H124.364L122.957 43.5822C122.928 43.6743 122.887 43.7784 122.838 43.8978C122.786 44.0195 122.719 44.1342 122.638 44.239C122.553 44.3517 122.445 44.4453 122.322 44.5137C122.18 44.5946 122.019 44.6353 121.856 44.6314Z" fill="#686363"/>
<path d="M126.107 43.1096C125.957 43.1159 125.81 43.0753 125.685 42.9936C125.575 42.9102 125.493 42.7954 125.45 42.6643C125.397 42.4989 125.372 42.326 125.375 42.1525V37.4728H125.984V42.1696C125.985 42.2181 125.988 42.2665 125.994 42.3146C126.004 42.3764 126.028 42.4349 126.066 42.4852C126.091 42.5119 126.122 42.5324 126.157 42.5451C126.192 42.5578 126.229 42.5624 126.265 42.5586C126.323 42.5598 126.381 42.55 126.436 42.5295V43.0806C126.383 43.0954 126.33 43.1062 126.275 43.113C126.219 43.1152 126.163 43.114 126.107 43.1096Z" fill="#686363"/>
<path d="M128.898 43.1096C128.6 43.1152 128.307 43.0262 128.062 42.8554C127.815 42.6736 127.622 42.4267 127.507 42.1423C127.254 41.4608 127.248 40.7125 127.488 40.0267C127.592 39.7524 127.769 39.5117 128 39.3307C128.226 39.173 128.494 39.0863 128.769 39.0817C129.044 39.0772 129.315 39.1549 129.546 39.3051C129.768 39.4648 129.941 39.6834 130.046 39.9363C130.167 40.2374 130.226 40.5603 130.216 40.8849C130.217 40.9675 130.213 41.0501 130.205 41.1323C130.205 41.2056 130.194 41.2773 130.187 41.3421H127.779V40.8303H129.634C129.647 40.5304 129.571 40.2334 129.414 39.9773C129.35 39.8735 129.259 39.7885 129.152 39.7307C129.044 39.6729 128.923 39.6444 128.801 39.648C128.622 39.6424 128.448 39.7073 128.316 39.8288C128.171 39.9694 128.065 40.146 128.011 40.3407C127.94 40.5845 127.906 40.8375 127.91 41.0913C127.904 41.3545 127.945 41.6166 128.029 41.8659C128.093 42.0649 128.212 42.2422 128.371 42.3777C128.523 42.4987 128.713 42.5627 128.907 42.5585C129.056 42.5558 129.204 42.5263 129.342 42.4715C129.497 42.4128 129.639 42.3267 129.762 42.2173L129.988 42.7684C129.831 42.8811 129.659 42.9692 129.476 43.0294C129.289 43.0872 129.094 43.1143 128.898 43.1096Z" fill="#686363"/>
<path d="M131.278 44.1673L131.032 43.9285L131.416 43.5292C131.482 43.4625 131.542 43.3913 131.597 43.316C131.651 43.2444 131.697 43.1665 131.732 43.0839C131.767 43.008 131.786 42.9254 131.787 42.8417H131.938C131.915 42.9138 131.877 42.9801 131.826 43.0362C131.8 43.0618 131.768 43.0816 131.734 43.0943C131.699 43.1069 131.663 43.1121 131.626 43.1095C131.545 43.1103 131.465 43.0891 131.394 43.0481C131.325 43.0054 131.266 42.947 131.224 42.8775C131.181 42.8052 131.159 42.7226 131.16 42.6387C131.158 42.575 131.17 42.5116 131.194 42.4527C131.219 42.3939 131.255 42.341 131.302 42.2975C131.347 42.2524 131.4 42.217 131.458 42.1932C131.517 42.1695 131.58 42.1579 131.643 42.1593C131.708 42.1593 131.772 42.1732 131.831 42.2C131.889 42.2268 131.942 42.2658 131.984 42.3145C132.082 42.4258 132.136 42.5689 132.136 42.7172C132.142 42.8588 132.116 42.9999 132.059 43.13C132.008 43.2514 131.943 43.366 131.863 43.4712C131.806 43.5532 131.745 43.6318 131.679 43.7067L131.278 44.1673Z" fill="#686363"/>
<path d="M136.429 43.0515V40.7483L134.857 37.7115H135.589L136.226 39.0525L136.738 40.1171H136.767L137.913 37.7115H138.645L137.064 40.7483V43.0515H136.429Z" fill="#686363"/>
<path d="M140.433 43.1096C140.135 43.1158 139.843 43.0267 139.6 42.8554C139.355 42.6735 139.166 42.428 139.052 42.1456C138.917 41.8047 138.852 41.4405 138.86 41.0742C138.852 40.7157 138.917 40.3592 139.052 40.0267C139.166 39.7485 139.356 39.5075 139.6 39.3306C139.844 39.1624 140.136 39.0753 140.433 39.0815C140.728 39.0751 141.017 39.1623 141.259 39.3306C141.503 39.5062 141.692 39.7477 141.804 40.0267C141.941 40.3586 142.008 40.7153 142 41.0742C142.007 41.442 141.94 41.8075 141.804 42.149C141.693 42.4288 141.507 42.6723 141.266 42.8519C141.023 43.0255 140.731 43.1159 140.433 43.1096ZM140.433 42.5449C140.574 42.5458 140.713 42.5094 140.835 42.4393C140.957 42.3691 141.059 42.2678 141.129 42.1456C141.319 41.8214 141.409 41.4491 141.39 41.0742C141.409 40.7102 141.318 40.349 141.129 40.0369C141.058 39.9166 140.955 39.8172 140.833 39.7486C140.711 39.68 140.573 39.6447 140.433 39.6463C140.292 39.6447 140.153 39.68 140.029 39.7485C139.906 39.817 139.802 39.9164 139.729 40.0369C139.541 40.349 139.45 40.7102 139.468 41.0742C139.45 41.448 139.541 41.8189 139.729 42.1422C139.801 42.2651 139.904 42.367 140.027 42.4377C140.15 42.5083 140.29 42.5453 140.433 42.5449Z" fill="#686363"/>
<path d="M144.306 43.1096C144.093 43.111 143.884 43.0518 143.704 42.939C143.524 42.8234 143.378 42.6621 143.28 42.4715C143.174 42.2601 143.12 42.0259 143.125 41.7891V39.1396H143.733V41.784C143.727 41.9851 143.796 42.1811 143.926 42.335C143.992 42.4096 144.074 42.4683 144.167 42.507C144.259 42.5457 144.358 42.5633 144.458 42.5585C144.596 42.5602 144.733 42.5268 144.854 42.4613C144.972 42.3954 145.07 42.3002 145.139 42.1849C145.213 42.0668 145.251 41.93 145.249 41.7908V39.1396H145.858V42.132C145.857 42.2197 145.884 42.3055 145.933 42.3777C145.991 42.456 146.067 42.5183 146.155 42.5585L145.916 43.1096C145.753 43.0314 145.611 42.9142 145.503 42.7684C145.419 42.6531 145.366 42.5179 145.349 42.376L145.481 42.521H145.227L145.445 42.3845C145.342 42.5932 145.183 42.7701 144.988 42.8963C144.788 43.0351 144.55 43.1095 144.306 43.1096Z" fill="#686363"/>
<path d="M147.251 43.0515V39.1395H147.861V39.6684H147.962L147.774 39.9072C147.821 39.7545 147.897 39.6121 147.997 39.4875C148.095 39.3626 148.219 39.2611 148.361 39.1907C148.517 39.1151 148.688 39.0776 148.861 39.0815C148.929 39.0814 148.996 39.0871 149.063 39.0985C149.113 39.1026 149.163 39.1141 149.21 39.1327L148.948 39.74C148.917 39.7299 148.884 39.7241 148.851 39.7229C148.67 39.6899 148.484 39.7258 148.329 39.8236C148.184 39.9063 148.066 40.0282 147.987 40.1751C147.887 40.3724 147.84 40.5922 147.851 40.8131V43.0515H147.251Z" fill="#686363"/>
<path d="M153.432 43.1096C153.227 43.1096 153.024 43.0738 152.832 43.0038C152.643 42.936 152.464 42.8424 152.3 42.7257C152.148 42.6184 152.012 42.4916 151.893 42.3487L152.17 41.697C152.269 41.8414 152.384 41.9747 152.511 42.0945C152.64 42.215 152.784 42.3177 152.94 42.3999C153.084 42.4752 153.245 42.515 153.408 42.5159C153.56 42.5166 153.709 42.4753 153.84 42.3965C153.972 42.3155 154.082 42.2015 154.157 42.0655C154.239 41.9197 154.28 41.7548 154.277 41.5878C154.281 41.432 154.24 41.2783 154.157 41.1459C154.07 41.0122 153.953 40.9006 153.816 40.8201C153.648 40.7165 153.471 40.6291 153.287 40.559C153.042 40.4657 152.813 40.3388 152.604 40.182C152.421 40.0453 152.27 39.8707 152.161 39.6702C152.056 39.4577 152.002 39.223 152.005 38.9857C152.008 38.7483 152.067 38.5151 152.179 38.3053C152.294 38.1044 152.462 37.939 152.665 37.8276C152.883 37.7101 153.128 37.6513 153.375 37.657C153.637 37.6561 153.895 37.7144 154.13 37.8276C154.363 37.9369 154.571 38.0952 154.738 38.2917L154.492 38.8854C154.397 38.7583 154.286 38.6437 154.162 38.5442C154.047 38.4505 153.919 38.3746 153.782 38.319C153.656 38.2692 153.522 38.2443 153.387 38.2456C153.286 38.2417 153.185 38.2598 153.091 38.2987C152.997 38.3375 152.913 38.3963 152.844 38.4708C152.708 38.6214 152.635 38.8189 152.641 39.0219C152.637 39.1376 152.657 39.253 152.702 39.3599C152.746 39.4669 152.814 39.5629 152.899 39.6412C153.107 39.8148 153.343 39.951 153.597 40.0438C153.824 40.1294 154.04 40.2398 154.243 40.3731C154.439 40.4987 154.604 40.6673 154.726 40.8661C154.855 41.0859 154.919 41.3381 154.91 41.5929C154.917 41.871 154.847 42.1456 154.707 42.3862C154.58 42.6088 154.394 42.7927 154.171 42.9185C153.946 43.0461 153.691 43.112 153.432 43.1096Z" fill="#686363"/>
<path d="M157.268 43.1096C157.127 43.118 156.986 43.0939 156.856 43.0392C156.726 42.9844 156.611 42.9005 156.518 42.7939C156.339 42.5612 156.247 42.2722 156.261 41.9784V37.9726H156.87V41.9204C156.861 42.0832 156.904 42.2447 156.993 42.3811C157.027 42.4327 157.073 42.4752 157.127 42.5049C157.181 42.5347 157.242 42.5507 157.304 42.5517C157.35 42.5513 157.396 42.5427 157.439 42.5261C157.483 42.5101 157.525 42.4895 157.565 42.4647L157.79 43.0004C157.73 43.0243 157.655 43.0499 157.568 43.0772C157.47 43.1022 157.369 43.1132 157.268 43.1096ZM155.658 39.6974V39.1327H157.696V39.6974H155.658Z" fill="#686363"/>
<path d="M160.112 43.1096C159.813 43.1148 159.521 43.0246 159.277 42.852C159.033 42.6706 158.844 42.4249 158.731 42.1423C158.596 41.8014 158.531 41.4372 158.538 41.0709C158.53 40.7122 158.596 40.3557 158.731 40.0233C158.844 39.7448 159.034 39.5037 159.277 39.3273C159.523 39.159 159.815 39.0719 160.112 39.0782C160.407 39.0719 160.696 39.1591 160.938 39.3273C161.181 39.5034 161.37 39.7448 161.481 40.0233C161.619 40.355 161.686 40.7118 161.678 41.0709C161.686 41.4387 161.619 41.8044 161.481 42.1457C161.37 42.4284 161.182 42.6743 160.938 42.8554C160.697 43.0261 160.408 43.1152 160.112 43.1096ZM160.112 42.5449C160.253 42.5458 160.391 42.5092 160.514 42.4391C160.636 42.369 160.737 42.2677 160.807 42.1457C160.996 41.8215 161.087 41.4492 161.068 41.0743C161.086 40.7102 160.995 40.3491 160.807 40.037C160.736 39.9166 160.634 39.8172 160.512 39.7486C160.39 39.68 160.252 39.6447 160.112 39.6463C159.971 39.6444 159.832 39.6795 159.708 39.7481C159.585 39.8166 159.482 39.9162 159.409 40.037C159.22 40.3491 159.129 40.7102 159.148 41.0743C159.129 41.448 159.22 41.819 159.409 42.1423C159.48 42.2655 159.583 42.3677 159.706 42.4384C159.83 42.5091 159.97 42.5459 160.112 42.5449Z" fill="#686363"/>
<path d="M162.818 43.0516V39.1396H163.426V39.6684H163.528L163.339 39.9073C163.388 39.7548 163.464 39.6126 163.564 39.4876C163.661 39.3631 163.785 39.2617 163.926 39.1907C164.082 39.1153 164.253 39.0779 164.426 39.0816C164.494 39.0815 164.562 39.0872 164.63 39.0986C164.679 39.1024 164.728 39.1139 164.775 39.1327L164.522 39.7401C164.49 39.7298 164.457 39.7241 164.423 39.723C164.246 39.6921 164.063 39.728 163.911 39.8237C163.766 39.9064 163.648 40.0282 163.569 40.1751C163.469 40.3724 163.421 40.5922 163.431 40.8132V43.0516H162.818Z" fill="#686363"/>
<path d="M166.851 43.1096C166.554 43.1127 166.264 43.0225 166.021 42.852C165.773 42.6701 165.581 42.4233 165.466 42.1388C165.213 41.4574 165.207 40.7087 165.449 40.0233C165.552 39.7486 165.73 39.5077 165.961 39.3272C166.186 39.1714 166.452 39.0857 166.726 39.0812C166.999 39.0766 167.268 39.1534 167.498 39.3016C167.72 39.4613 167.893 39.68 167.998 39.9329C168.12 40.234 168.178 40.5569 168.169 40.8815C168.169 40.9641 168.165 41.0467 168.157 41.1288C168.157 41.2022 168.146 41.2739 168.14 41.3387H165.726V40.8269H167.583C167.596 40.5268 167.518 40.2298 167.361 39.9738C167.297 39.8701 167.206 39.785 167.099 39.7272C166.991 39.6694 166.87 39.6409 166.748 39.6446C166.569 39.6389 166.395 39.7039 166.263 39.8254C166.118 39.966 166.012 40.1426 165.958 40.3372C165.887 40.581 165.853 40.834 165.857 41.0879C165.851 41.3511 165.892 41.6132 165.977 41.8625C166.041 42.0612 166.159 42.2383 166.318 42.3743C166.47 42.4953 166.66 42.5593 166.854 42.5551C167.003 42.5523 167.151 42.5229 167.289 42.4681C167.444 42.4094 167.586 42.3233 167.709 42.2139L167.935 42.765C167.778 42.8777 167.606 42.9658 167.423 43.026C167.238 43.0844 167.045 43.1126 166.851 43.1096Z" fill="#686363"/>
<path fill-rule="evenodd" clip-rule="evenodd" d="M198.059 41.238H172.261V40.8661H198.059V41.238Z" fill="#686363"/>
<path fill-rule="evenodd" clip-rule="evenodd" d="M24.6865 1.02773C19.7299 2.16159 15.5905 6.06787 13.2998 9.35032L12.7184 8.94871C15.0667 5.5913 19.3387 1.53107 24.5324 0.342322C27.3339 -0.313501 30.274 -0.021579 32.8916 1.17231C35.8079 2.46949 38.7859 4.92062 41.7116 8.94336L41.1383 9.35969C38.2661 5.41325 35.3779 3.05449 32.6036 1.82023C30.1255 0.68604 27.3404 0.407254 24.6865 1.02773Z" fill="#343433"/>
<path fill-rule="evenodd" clip-rule="evenodd" d="M0.22917 43.6875L9.37471 9.55114C9.46049 9.23222 9.64916 8.95049 9.91145 8.7496C10.1738 8.54872 10.495 8.43991 10.8255 8.44003H14.5188C14.7927 8.44008 15.0614 8.51492 15.2959 8.65649C15.5303 8.79805 15.7216 9.00094 15.8491 9.24324L19.9442 17.0652C20.3917 17.9206 19.9242 18.9822 19.0588 19.4119C15.3869 21.2352 10.4585 26.2231 11.1108 36.3489V44.0704C11.111 44.2674 11.0723 44.4625 10.997 44.6446C10.9217 44.8266 10.8112 44.9921 10.6719 45.1315C10.5325 45.2708 10.3671 45.3814 10.185 45.4568C10.0028 45.5322 9.80762 45.5711 9.61048 45.5711H1.67997C1.45021 45.5709 1.22356 45.518 1.01746 45.4165C0.811366 45.3151 0.631315 45.1677 0.491173 44.9857C0.351032 44.8038 0.254537 44.5922 0.209114 44.3671C0.163691 44.142 0.170552 43.9095 0.22917 43.6875ZM13.0131 10.9032C13.1673 10.9032 13.318 10.8575 13.4462 10.7719C13.5745 10.6863 13.6744 10.5646 13.7334 10.4222C13.7924 10.2799 13.8078 10.1232 13.7778 9.9721C13.7477 9.82097 13.6734 9.68214 13.5644 9.57318C13.4554 9.46422 13.3164 9.39001 13.1652 9.35995C13.014 9.32989 12.8572 9.34532 12.7147 9.40429C12.5723 9.46326 12.4505 9.56312 12.3648 9.69124C12.2792 9.81937 12.2334 9.97 12.2334 10.1241C12.2334 10.3307 12.3156 10.5289 12.4618 10.675C12.608 10.8211 12.8063 10.9032 13.0131 10.9032Z" fill="url(#paint0_linear_1399_774)"/>
<path fill-rule="evenodd" clip-rule="evenodd" d="M54.1968 43.6875L45.0513 9.55114C44.9655 9.23222 44.7768 8.95049 44.5145 8.7496C44.2522 8.54872 43.9309 8.43991 43.6005 8.44003H39.9085C39.6343 8.43983 39.3654 8.51456 39.1306 8.65614C38.8959 8.79771 38.7045 9.00074 38.5769 9.24324L34.4817 17.0692C34.0343 17.9246 34.5018 18.9862 35.3672 19.4159C39.0391 21.2392 43.9675 26.2271 43.3138 36.3529V44.0704C43.3138 44.4684 43.472 44.8501 43.7536 45.1315C44.0352 45.413 44.4172 45.5711 44.8155 45.5711H52.746C52.9757 45.5709 53.2024 45.518 53.4085 45.4165C53.6146 45.3151 53.7947 45.1677 53.9348 44.9857C54.0749 44.8038 54.1714 44.5922 54.2169 44.3671C54.2623 44.142 54.2554 43.9095 54.1968 43.6875ZM41.4129 10.9032C41.2587 10.9032 41.1079 10.8575 40.9797 10.7719C40.8515 10.6863 40.7516 10.5646 40.6926 10.4223C40.6336 10.2799 40.6181 10.1232 40.6482 9.9721C40.6783 9.82097 40.7525 9.68214 40.8616 9.57318C40.9706 9.46422 41.1095 9.39002 41.2608 9.35995C41.412 9.32989 41.5688 9.34532 41.7112 9.40429C41.8537 9.46326 41.9755 9.56312 42.0611 9.69124C42.1468 9.81937 42.1925 9.97 42.1925 10.1241C42.1925 10.3307 42.1104 10.5289 41.9642 10.675C41.818 10.8211 41.6196 10.9032 41.4129 10.9032Z" fill="url(#paint1_linear_1399_774)"/>
<path fill-rule="evenodd" clip-rule="evenodd" d="M27.3282 21.3208C21.9563 21.3208 17.5865 25.7385 17.5865 31.1749C17.5865 37.9124 26.3034 47.8187 26.6771 48.235C26.7588 48.3274 26.8593 48.4014 26.9717 48.452C27.0842 48.5027 27.2062 48.5289 27.3295 48.5289C27.4529 48.5289 27.5748 48.5027 27.6873 48.452C27.7998 48.4014 27.9002 48.3274 27.9819 48.235C28.3516 47.8187 37.0685 37.9124 37.0685 31.1749C37.0685 25.7411 32.7054 21.3208 27.3282 21.3208ZM27.3282 32.3221C28.0435 32.3221 28.7429 32.1101 29.3377 31.713C29.9325 31.3158 30.3961 30.7513 30.6698 30.0908C30.9436 29.4304 31.0152 28.7037 30.8756 28.0025C30.7361 27.3014 30.3916 26.6573 29.8858 26.1519C29.3799 25.6464 28.7354 25.3021 28.0338 25.1627C27.3322 25.0232 26.6049 25.0948 25.944 25.3684C25.2831 25.6419 24.7182 26.1052 24.3208 26.6996C23.9234 27.294 23.7112 27.9928 23.7112 28.7077C23.7112 29.6663 24.0923 30.5856 24.7706 31.2635C25.4489 31.9413 26.3689 32.3221 27.3282 32.3221Z" fill="#343433"/>
<defs>
<linearGradient id="paint0_linear_1399_774" x1="0.179474" y1="27.0056" x2="20.1168" y2="27.0056" gradientUnits="userSpaceOnUse">
<stop stop-color="#7F94E7"/>
<stop offset="1" stop-color="#4A51BA"/>
</linearGradient>
<linearGradient id="paint1_linear_1399_774" x1="34.3091" y1="27.0056" x2="54.2465" y2="27.0056" gradientUnits="userSpaceOnUse">
<stop stop-color="#7F94E7"/>
<stop offset="1" stop-color="#4A51BA"/>
</linearGradient>
</defs>
</svg>
