<svg width="198" height="49" viewBox="0 0 198 49" fill="none" xmlns="http://www.w3.org/2000/svg">
<path d="M83.4479 26.3354H80.8495L77.3521 18.3851C77.248 18.1582 77.1149 17.8477 76.9495 17.457C76.784 17.0664 76.6407 16.6313 76.4547 16.157C76.2687 15.6827 76.0725 15.188 75.8661 14.6727C75.6597 14.1575 75.4652 13.5996 75.2792 13.0639C75.2792 13.5996 75.269 14.137 75.2485 14.6727C75.228 15.2084 75.2383 15.6827 75.2178 16.157C75.1973 16.6313 75.1751 17.0237 75.1547 17.3939V18.2299L74.8459 26.3354H71.3809L72.6178 5.33032H75.4959L80.7847 18.4466C80.9701 18.9208 81.1765 19.4366 81.404 19.994C81.6519 20.5501 81.8794 21.0966 82.0864 21.6335C82.2923 21.0955 82.509 20.5592 82.7364 20.0247C82.9639 19.4662 83.1806 18.9402 83.3864 18.4466L88.706 5.33032H91.521L92.7596 26.3354H89.3253L88.984 18.3169C88.9636 17.8017 88.9323 17.0698 88.8902 16.1212C88.8697 15.1521 88.8493 14.1723 88.8288 13.1816C88.6434 13.698 88.4472 14.2138 88.2402 14.729C88.0559 15.2443 87.8808 15.7288 87.7147 16.1826C87.5441 16.6364 87.3957 17.0493 87.2507 17.4212C87.1057 17.7931 86.9931 18.0798 86.9095 18.2862L83.4479 26.3354Z" fill="white"/>
<path d="M108.991 20.0861C108.987 20.6572 109.028 21.2278 109.116 21.7922C109.218 22.304 109.322 22.8244 109.424 23.3396C109.527 23.8548 109.662 24.3394 109.766 24.8546C109.872 25.4169 109.924 25.9883 109.919 26.5607C109.919 28.7456 109.362 30.3748 108.249 31.4485C107.135 32.5222 105.63 33.0585 103.733 33.0574C103.11 33.0564 102.488 32.9941 101.877 32.8714C101.258 32.7679 100.68 32.6439 100.143 32.4995C99.6934 32.3774 99.2499 32.2328 98.8144 32.0661C98.4425 31.9228 98.1951 31.8187 98.0705 31.7573L98.9372 29.0669C99.2255 29.1897 99.5463 29.3142 99.896 29.4371C100.246 29.5599 100.638 29.7152 101.01 29.8397C101.406 29.9642 101.809 30.0673 102.216 30.1485C102.613 30.2302 103.017 30.2719 103.422 30.2731C104.577 30.2731 105.412 29.9222 105.929 29.2204C106.444 28.538 106.702 27.6514 106.702 26.5607C106.691 25.5073 106.481 24.4653 106.084 23.4897C105.505 24.5816 104.732 25.3653 103.764 25.8407C102.828 26.2923 101.802 26.5256 100.763 26.5231C99.1329 26.5231 97.9676 26.0488 97.267 25.1003C96.5846 24.1494 96.2433 22.85 96.2433 21.2019V10.9314H99.7698V21.1081C99.7698 21.9748 99.9245 22.6572 100.234 23.1553C100.543 23.6535 101.069 23.9009 101.812 23.8975C102.246 23.8859 102.67 23.7688 103.049 23.5563C103.506 23.3264 103.916 23.0114 104.255 22.6282C104.636 22.1996 104.94 21.7077 105.152 21.1746C105.404 20.5847 105.531 19.9494 105.526 19.3082V10.9297H109.146L108.991 20.0861Z" fill="white"/>
<path d="M111.345 10.9297H114.13L114.749 7.30943L117.649 6.65942V10.9246H121.454L121.027 13.4342H117.656V22.5924C117.656 23.1281 117.801 23.4795 118.09 23.6433C118.388 23.7901 118.716 23.8644 119.048 23.86C119.602 23.8578 120.153 23.785 120.688 23.6433C120.949 23.5841 121.207 23.5118 121.461 23.4266L122.049 25.7469L121.771 25.8407C121.499 25.9516 121.22 26.0445 120.935 26.1188C120.517 26.2131 120.094 26.2854 119.668 26.3355C119.146 26.4211 118.618 26.4622 118.09 26.4583C117.548 26.4625 117.008 26.4007 116.481 26.2741C116.033 26.1625 115.613 25.9623 115.244 25.6855C114.888 25.391 114.603 25.0209 114.408 24.6021C114.208 24.0906 114.113 23.544 114.13 22.995V13.441H111.345V10.9297Z" fill="white"/>
<path d="M131.124 14.1458C130.736 14.1502 130.354 14.246 130.01 14.4255C129.632 14.6153 129.296 14.878 129.02 15.1984C128.715 15.5332 128.474 15.9212 128.309 16.3432C128.118 16.8251 128.023 17.3398 128.031 17.8582V26.3356H124.503V18.5389C124.52 17.5023 124.437 16.4665 124.255 15.4458C124.131 14.7512 123.956 14.0669 123.73 13.3985C123.546 12.8842 123.296 12.3957 122.988 11.9449L125.772 10.8309C125.985 11.0968 126.181 11.376 126.359 11.6668C126.545 11.9977 126.711 12.3396 126.855 12.6905C127.036 13.1396 127.171 13.6061 127.256 14.0826C127.669 12.8872 128.267 12.0342 129.051 11.5235C129.632 11.1381 130.29 10.8833 130.978 10.7767C131.667 10.6701 132.371 10.7141 133.042 10.9059C133.454 11.0083 133.651 11.0595 133.63 11.0595L132.639 14.4938C132.52 14.4315 132.396 14.3796 132.269 14.3385C131.906 14.1918 131.515 14.1261 131.124 14.1458Z" fill="white"/>
<path d="M147.144 18.88C147.13 19.9255 147.203 20.9703 147.361 22.0038C147.488 22.6858 147.664 23.358 147.886 24.0153C148.06 24.5341 148.311 25.024 148.63 25.4689L145.876 26.5829C145.592 26.2925 145.343 25.9695 145.134 25.6207C144.927 25.2437 144.751 24.8506 144.607 24.4452C144.43 23.9042 144.326 23.3419 144.298 22.7733C143.947 24.0119 143.378 24.9508 142.592 25.59C141.828 26.2076 140.786 26.517 139.467 26.5181C138.592 26.5382 137.724 26.3579 136.93 25.9909C136.229 25.6211 135.625 25.0916 135.167 24.4452C134.666 23.7035 134.309 22.8741 134.115 22.0004C133.878 20.9659 133.763 19.9071 133.773 18.8459C133.762 17.7433 133.94 16.6469 134.299 15.6044C134.638 14.6466 135.155 13.7615 135.822 12.9958C136.499 12.2517 137.326 11.66 138.249 11.26C139.172 10.86 140.169 10.6607 141.174 10.6756C141.817 10.6775 142.458 10.7288 143.092 10.8291C143.774 10.9133 144.403 11.0065 144.979 11.1089C145.556 11.2113 146.042 11.3136 146.432 11.4177C146.823 11.5218 147.082 11.5508 147.144 11.573V18.88ZM140.06 24.046C140.582 24.0435 141.085 23.8575 141.483 23.5205C141.938 23.1411 142.317 22.6778 142.597 22.1557C142.939 21.5461 143.189 20.8896 143.339 20.2074C143.524 19.4687 143.618 18.71 143.617 17.9485V13.4974C143.412 13.4337 143.102 13.3615 142.689 13.2807C142.323 13.2024 141.95 13.1607 141.575 13.1562C140.902 13.132 140.232 13.27 139.624 13.5588C139.134 13.8222 138.719 14.2055 138.417 14.6729C138.09 15.1929 137.869 15.7728 137.767 16.379C137.638 17.0933 137.576 17.8181 137.581 18.544C137.581 19.2673 137.602 19.9583 137.643 20.6168C137.675 21.2149 137.781 21.8067 137.957 22.3792C138.113 22.847 138.377 23.2709 138.73 23.6161C139.105 23.9191 139.579 24.0723 140.06 24.046Z" fill="white"/>
<path d="M160.402 26.3338V16.3414C160.402 15.4747 160.247 14.7837 159.938 14.2685C159.628 13.7328 159.103 13.465 158.361 13.465C157.873 13.4682 157.394 13.5956 156.969 13.8352C156.508 14.0868 156.106 14.4361 155.794 14.8588C155.415 15.3643 155.123 15.9286 154.927 16.529C154.712 17.2302 154.608 17.9607 154.618 18.694V26.3355H151.092V18.5388C151.106 17.5014 151.021 16.4649 150.836 15.444C150.712 14.7494 150.536 14.0651 150.31 13.3967C150.126 12.8824 149.877 12.3939 149.568 11.9432L152.353 10.8291C152.584 11.0887 152.791 11.3685 152.972 11.6651C153.163 12.0134 153.329 12.3755 153.467 12.7484C153.645 13.2089 153.779 13.6854 153.868 14.1713C154.406 12.9327 155.179 12.0455 156.188 11.5098C157.161 10.9635 158.259 10.6762 159.375 10.6755C160.967 10.6755 162.112 11.1601 162.809 12.1291C163.531 13.0777 163.892 14.3663 163.892 15.9951V26.3287L160.402 26.3338Z" fill="white"/>
<path d="M178.836 26.5828C178.732 26.5019 178.639 26.4085 178.558 26.3047C178.378 26.0675 178.213 25.8197 178.063 25.5625C177.871 25.1931 177.706 24.8106 177.568 24.4178C177.392 23.8871 177.287 23.3351 177.258 22.7765C176.907 24.0152 176.339 24.9541 175.552 25.5933C174.788 26.2109 173.747 26.5202 172.426 26.5214C171.552 26.5415 170.685 26.3611 169.891 25.9942C169.19 25.6243 168.586 25.0949 168.127 24.4485C167.626 23.707 167.269 22.8775 167.076 22.0037C166.839 20.9692 166.725 19.9104 166.735 18.8492C166.724 17.7466 166.902 16.6504 167.26 15.6077C167.598 14.6488 168.114 13.7625 168.782 12.9957C169.458 12.2516 170.286 11.6599 171.208 11.2598C172.131 10.8598 173.128 10.6606 174.134 10.6754C174.505 10.6754 174.896 10.6959 175.309 10.7368C175.743 10.7778 176.162 10.829 176.577 10.8921V3.89722L180.105 4.51481V18.8697C180.09 19.9049 180.162 20.9395 180.32 21.9627C180.432 22.6353 180.598 23.2978 180.816 23.9435C180.946 24.3194 181.111 24.6816 181.311 25.0251C181.418 25.1599 181.511 25.305 181.589 25.4585L178.836 26.5828ZM173.02 24.0237C173.541 24.0212 174.045 23.8351 174.443 23.4982C174.898 23.1192 175.277 22.6557 175.557 22.1334C175.901 21.522 176.152 20.8632 176.304 20.1782C176.49 19.4508 176.584 18.7027 176.582 17.9518V13.4973C176.375 13.4336 176.066 13.3613 175.654 13.2806C175.288 13.2023 174.916 13.1606 174.542 13.156C173.869 13.1322 173.2 13.2703 172.592 13.5587C172.102 13.822 171.687 14.2053 171.385 14.6727C171.059 15.1931 170.838 15.7729 170.735 16.3788C170.607 17.0932 170.545 17.818 170.549 18.5438C170.549 19.2672 170.57 19.9581 170.613 20.6167C170.641 21.2144 170.743 21.8064 170.916 22.379C171.077 22.8354 171.342 23.2483 171.689 23.5852C172.064 23.8877 172.538 24.0408 173.02 24.0152V24.0237Z" fill="white"/>
<path d="M188.801 10.5578C189.394 10.5569 189.985 10.6193 190.565 10.7437C191.09 10.8522 191.606 10.997 192.111 11.1771C192.649 11.3625 193.144 11.5581 193.597 11.764L192.544 14.178C192.132 13.9926 191.72 13.8272 191.307 13.6816C190.921 13.5481 190.529 13.4342 190.132 13.3404C189.73 13.2188 189.314 13.1561 188.895 13.1544C188.457 13.1444 188.027 13.263 187.656 13.4956C187.492 13.6092 187.361 13.7631 187.274 13.9425C187.188 14.1218 187.149 14.3205 187.161 14.5193C187.161 15.6942 188.017 16.612 189.729 17.2728C190.325 17.5 190.904 17.7685 191.462 18.0764C191.946 18.321 192.385 18.6451 192.761 19.0352C193.13 19.4032 193.415 19.8467 193.597 20.3352C193.795 20.8804 193.89 21.4579 193.876 22.0379C193.875 22.6265 193.748 23.208 193.504 23.744C193.27 24.3112 192.911 24.8185 192.454 25.2282C191.958 25.6862 191.379 26.0437 190.747 26.2809C190.024 26.5362 189.26 26.6592 188.492 26.6443C187.814 26.6449 187.138 26.5618 186.481 26.3969C185.873 26.2677 185.274 26.1025 184.686 25.9021C184.262 25.755 183.849 25.5794 183.449 25.3767L182.985 25.16L184.13 22.5616L184.532 22.7766C184.862 22.9736 185.204 23.1497 185.556 23.3038C185.969 23.4897 186.409 23.6638 186.887 23.8293C187.307 23.9652 187.745 24.0382 188.187 24.0459C188.909 24.0459 189.445 23.9015 189.794 23.6126C189.965 23.4759 190.101 23.3012 190.193 23.1025C190.284 22.9038 190.328 22.6865 190.321 22.4678C190.319 21.9257 190.108 21.4053 189.732 21.0142C189.362 20.5593 188.793 20.1879 188.026 19.9002C186.434 19.3031 185.289 18.6206 184.592 17.8529C183.91 17.0897 183.568 16.1002 183.568 14.8844C183.566 14.3133 183.704 13.7505 183.969 13.2448C184.234 12.7131 184.602 12.2397 185.053 11.8527C185.543 11.43 186.11 11.1046 186.723 10.8939C187.391 10.6634 188.094 10.5497 188.801 10.5578Z" fill="white"/>
<path fill-rule="evenodd" clip-rule="evenodd" d="M93.2953 41.2379H67.5149V40.866H93.2953V41.2379Z" fill="white"/>
<path d="M98.9492 43.0514V40.7482L97.3762 37.7114H98.1081L98.7461 39.0524L99.258 40.117H99.287L100.432 37.7114H101.164L99.5838 40.7482V43.0514H98.9492Z" fill="white"/>
<path d="M102.943 43.1094C102.645 43.1156 102.353 43.0265 102.109 42.8552C101.865 42.6738 101.676 42.4281 101.563 42.1455C101.428 41.8046 101.363 41.4404 101.37 41.0741C101.362 40.7154 101.428 40.3589 101.563 40.0265C101.676 39.748 101.865 39.5069 102.109 39.3305C102.354 39.1622 102.646 39.0751 102.943 39.0814C103.238 39.0754 103.527 39.1625 103.769 39.3305C104.012 39.5066 104.2 39.748 104.311 40.0265C104.449 40.3582 104.516 40.715 104.507 41.0741C104.516 41.4419 104.449 41.8076 104.311 42.1489C104.2 42.4316 104.012 42.6774 103.769 42.8586C103.527 43.0278 103.238 43.1156 102.943 43.1094ZM102.943 42.5447C103.084 42.5454 103.222 42.5088 103.344 42.4387C103.466 42.3685 103.567 42.2674 103.637 42.1455C103.827 41.8212 103.917 41.449 103.898 41.0741C103.917 40.71 103.826 40.3489 103.637 40.0368C103.566 39.9165 103.464 39.8172 103.342 39.7486C103.221 39.6801 103.083 39.6447 102.943 39.6461C102.802 39.6442 102.663 39.6793 102.54 39.7479C102.416 39.8164 102.313 39.916 102.24 40.0368C102.052 40.3489 101.961 40.71 101.979 41.0741C101.961 41.4478 102.052 41.8188 102.24 42.1421C102.311 42.2653 102.414 42.3675 102.537 42.4382C102.661 42.5089 102.801 42.5457 102.943 42.5447Z" fill="white"/>
<path d="M106.819 43.1094C106.607 43.111 106.398 43.0518 106.219 42.9388C106.038 42.8239 105.891 42.6625 105.794 42.4714C105.687 42.26 105.634 42.0257 105.639 41.7889V39.1394H106.248V41.7838C106.242 41.9847 106.31 42.1808 106.439 42.3349C106.506 42.4088 106.588 42.4671 106.68 42.5057C106.772 42.5443 106.871 42.5623 106.971 42.5584C107.109 42.5601 107.245 42.5266 107.367 42.4611C107.485 42.3957 107.584 42.3004 107.653 42.1847C107.726 42.0662 107.763 41.9295 107.761 41.7906V39.1394H108.37V42.1319C108.37 42.2197 108.397 42.3055 108.447 42.3775C108.503 42.4558 108.579 42.5181 108.667 42.5584L108.428 43.1094C108.265 43.0307 108.123 42.9136 108.015 42.7682C107.932 42.6525 107.88 42.5174 107.863 42.3758L107.993 42.5208H107.741L107.957 42.3843C107.854 42.5934 107.696 42.7704 107.5 42.8962C107.3 43.0349 107.063 43.1093 106.819 43.1094Z" fill="white"/>
<path d="M109.767 43.0515V39.1395H110.376V39.6684H110.477L110.289 39.9073C110.338 39.7548 110.414 39.6126 110.515 39.4876C110.612 39.3631 110.735 39.2617 110.876 39.1907C111.032 39.1153 111.203 39.0779 111.376 39.0815C111.444 39.0815 111.512 39.0872 111.579 39.0986C111.629 39.1026 111.678 39.1141 111.724 39.1327L111.473 39.7401C111.442 39.7299 111.409 39.7242 111.376 39.723C111.196 39.6899 111.009 39.7259 110.854 39.8237C110.709 39.9057 110.591 40.0277 110.513 40.1751C110.413 40.3723 110.365 40.5921 110.375 40.8132V43.0515H109.767Z" fill="white"/>
<path d="M115.938 43.1094C115.734 43.1094 115.532 43.0736 115.341 43.0036C115.152 42.9362 114.972 42.8426 114.809 42.7256C114.657 42.6187 114.52 42.4919 114.403 42.3485L114.677 41.6968C114.776 41.8416 114.89 41.9749 115.019 42.0943C115.146 42.2148 115.29 42.3175 115.445 42.3997C115.589 42.4727 115.748 42.5107 115.909 42.5106C116.061 42.5113 116.211 42.47 116.341 42.3912C116.474 42.3103 116.584 42.1962 116.66 42.0602C116.741 41.9141 116.782 41.7494 116.779 41.5825C116.783 41.4268 116.741 41.2733 116.66 41.1406C116.573 41.0071 116.456 40.8956 116.319 40.8148C116.151 40.7106 115.974 40.6231 115.79 40.5537C115.546 40.4604 115.316 40.3335 115.107 40.1767C114.925 40.0395 114.775 39.865 114.665 39.6649C114.561 39.4521 114.508 39.2176 114.511 38.9804C114.514 38.7433 114.573 38.5102 114.683 38.3C114.798 38.0994 114.966 37.9342 115.169 37.8223C115.387 37.705 115.631 37.6462 115.878 37.6517C116.139 37.6508 116.397 37.7091 116.633 37.8223C116.867 37.9312 117.075 38.0895 117.242 38.2864L116.994 38.8801C116.9 38.7526 116.789 38.638 116.665 38.5389C116.55 38.4452 116.422 38.3693 116.285 38.3137C116.161 38.2618 116.028 38.2346 115.894 38.2335C115.792 38.2295 115.691 38.2476 115.597 38.2865C115.503 38.3254 115.419 38.3841 115.35 38.4587C115.214 38.6096 115.141 38.8068 115.147 39.0097C115.142 39.1254 115.163 39.2407 115.208 39.3476C115.252 39.4544 115.319 39.5505 115.404 39.629C115.612 39.8027 115.849 39.9389 116.104 40.0317C116.33 40.1173 116.546 40.2277 116.749 40.361C116.944 40.4867 117.109 40.6553 117.23 40.854C117.36 41.0736 117.424 41.3258 117.416 41.5808C117.422 41.8588 117.351 42.1331 117.213 42.3741C117.085 42.5967 116.899 42.7806 116.675 42.9064C116.452 43.0381 116.197 43.1081 115.938 43.1094Z" fill="white"/>
<path d="M119.772 43.1096C119.631 43.118 119.49 43.094 119.36 43.0392C119.23 42.9845 119.115 42.9006 119.023 42.794C118.843 42.5612 118.752 42.2723 118.765 41.9785V37.9727H119.374V41.9205C119.365 42.0832 119.408 42.2447 119.497 42.3811C119.545 42.4512 119.615 42.5031 119.695 42.5282C119.776 42.5533 119.863 42.5502 119.942 42.5193C119.987 42.503 120.03 42.4824 120.07 42.4579L120.294 42.9936C120.235 43.0175 120.161 43.0431 120.074 43.0704C119.975 43.0978 119.874 43.111 119.772 43.1096ZM118.165 39.6975V39.1328H120.2V39.6975H118.165Z" fill="white"/>
<path d="M121.592 44.6312C121.477 44.6305 121.362 44.6144 121.251 44.5835C121.165 44.5616 121.082 44.5313 121.002 44.493L121.227 43.942C121.285 43.9799 121.349 44.0102 121.415 44.0324C121.472 44.0569 121.533 44.0708 121.595 44.0733C121.649 44.0754 121.702 44.0665 121.752 44.0472C121.802 44.0278 121.847 43.9984 121.886 43.9608C121.959 43.8843 122.017 43.7945 122.056 43.6963C122.095 43.6095 122.127 43.52 122.153 43.4285L122.343 42.746V43.2169L120.894 39.1462H121.56L122.539 42.2325H122.568L122.778 41.5006L123.443 39.1462H124.098L122.692 43.582C122.663 43.6741 122.623 43.7782 122.573 43.8976C122.521 44.0194 122.454 44.134 122.373 44.2388C122.289 44.3515 122.181 44.4451 122.058 44.5135C121.916 44.5944 121.755 44.6351 121.592 44.6312Z" fill="white"/>
<path d="M125.84 43.1095C125.691 43.1158 125.544 43.0752 125.419 42.9935C125.309 42.9101 125.227 42.7953 125.183 42.6642C125.131 42.4988 125.106 42.3259 125.108 42.1524V37.4727H125.717V42.1695C125.718 42.2179 125.722 42.2663 125.728 42.3145C125.737 42.3763 125.762 42.4348 125.799 42.4851C125.825 42.5118 125.856 42.5323 125.89 42.545C125.925 42.5577 125.962 42.5623 125.999 42.5584C126.057 42.5597 126.115 42.5499 126.169 42.5294V43.0805C126.117 43.0953 126.063 43.1061 126.009 43.1129C125.953 43.115 125.896 43.1139 125.84 43.1095Z" fill="white"/>
<path d="M128.63 43.1096C128.331 43.1152 128.039 43.0262 127.794 42.8554C127.546 42.6736 127.354 42.4267 127.239 42.1423C126.986 41.4608 126.98 40.7125 127.22 40.0267C127.324 39.7524 127.501 39.5117 127.732 39.3307C127.958 39.173 128.225 39.0863 128.5 39.0817C128.775 39.0772 129.046 39.1549 129.276 39.3051C129.498 39.4648 129.672 39.6834 129.776 39.9363C129.898 40.2374 129.956 40.5603 129.947 40.8849C129.947 40.9675 129.943 41.0501 129.935 41.1323C129.935 41.2056 129.925 41.2773 129.918 41.3421H127.51V40.8303H129.365C129.378 40.5304 129.301 40.2334 129.145 39.9773C129.081 39.8735 128.99 39.7885 128.883 39.7307C128.775 39.6729 128.654 39.6444 128.532 39.648C128.353 39.6424 128.179 39.7073 128.048 39.8288C127.903 39.9694 127.797 40.146 127.742 40.3407C127.672 40.5845 127.638 40.8375 127.642 41.0913C127.636 41.3545 127.677 41.6166 127.761 41.8659C127.825 42.0649 127.943 42.2422 128.102 42.3777C128.254 42.4987 128.444 42.5627 128.638 42.5585C128.787 42.5558 128.935 42.5263 129.073 42.4715C129.227 42.4128 129.37 42.3267 129.493 42.2173L129.718 42.7684C129.562 42.8811 129.389 42.9692 129.206 43.0294C129.02 43.0872 128.825 43.1143 128.63 43.1096Z" fill="white"/>
<path d="M131.008 44.1673L130.762 43.9285L131.146 43.5293C131.211 43.4626 131.272 43.3913 131.327 43.316C131.381 43.2444 131.426 43.1665 131.462 43.084C131.497 43.008 131.515 42.9254 131.516 42.8417H131.668C131.645 42.9138 131.606 42.9801 131.555 43.0362C131.529 43.0618 131.498 43.0816 131.463 43.0943C131.429 43.1069 131.392 43.1121 131.356 43.1096C131.274 43.1103 131.194 43.0891 131.124 43.0482C131.054 43.0054 130.996 42.947 130.953 42.8775C130.911 42.8052 130.889 42.7226 130.89 42.6387C130.888 42.575 130.9 42.5116 130.924 42.4528C130.948 42.3939 130.985 42.341 131.032 42.2975C131.076 42.2525 131.129 42.217 131.188 42.1932C131.247 42.1695 131.31 42.1579 131.373 42.1593C131.438 42.1594 131.501 42.1733 131.56 42.2C131.619 42.2268 131.672 42.2658 131.714 42.3145C131.812 42.4258 131.866 42.569 131.866 42.7172C131.872 42.8588 131.846 42.9999 131.789 43.13C131.738 43.2514 131.672 43.3661 131.593 43.4713C131.536 43.5532 131.475 43.6318 131.409 43.7067L131.008 44.1673Z" fill="white"/>
<path d="M136.155 43.0514V40.7482L134.584 37.7114H135.316L135.952 39.0524L136.464 40.117H136.493L137.638 37.7114H138.369L136.79 40.7482V43.0514H136.155Z" fill="white"/>
<path d="M140.156 43.1094C139.858 43.1156 139.567 43.0265 139.323 42.8552C139.079 42.6734 138.89 42.4278 138.776 42.1455C138.642 41.8045 138.577 41.4403 138.585 41.0741C138.576 40.7155 138.641 40.3591 138.776 40.0265C138.89 39.7483 139.08 39.5073 139.323 39.3305C139.568 39.1622 139.859 39.0751 140.156 39.0814C140.45 39.0749 140.74 39.1621 140.982 39.3305C141.225 39.5061 141.414 39.7475 141.526 40.0265C141.663 40.3584 141.73 40.7151 141.722 41.0741C141.729 41.4419 141.663 41.8074 141.526 42.1489C141.416 42.4287 141.23 42.6721 140.988 42.8518C140.746 43.0253 140.454 43.1157 140.156 43.1094ZM140.156 42.5447C140.297 42.5457 140.435 42.5093 140.558 42.4391C140.68 42.369 140.782 42.2677 140.852 42.1455C141.041 41.8213 141.132 41.449 141.113 41.0741C141.131 40.71 141.04 40.3489 140.852 40.0368C140.78 39.9164 140.678 39.817 140.556 39.7484C140.434 39.6799 140.296 39.6446 140.156 39.6461C140.015 39.6446 139.876 39.6798 139.753 39.7483C139.629 39.8168 139.526 39.9162 139.453 40.0368C139.265 40.3489 139.174 40.71 139.192 41.0741C139.174 41.4478 139.265 41.8188 139.453 42.1421C139.524 42.265 139.627 42.3668 139.75 42.4375C139.874 42.5082 140.014 42.5452 140.156 42.5447Z" fill="white"/>
<path d="M144.027 43.1094C143.814 43.1108 143.605 43.0516 143.425 42.9388C143.245 42.8232 143.099 42.6619 143.001 42.4714C142.895 42.26 142.841 42.0257 142.846 41.7889V39.1394H143.454V41.7838C143.448 41.9849 143.517 42.1809 143.646 42.3349C143.713 42.4094 143.795 42.4682 143.887 42.5068C143.979 42.5455 144.079 42.5631 144.179 42.5584C144.317 42.5601 144.453 42.5266 144.574 42.4611C144.692 42.3952 144.79 42.3 144.859 42.1847C144.933 42.0666 144.971 41.9298 144.969 41.7906V39.1394H145.578V42.1319C145.577 42.2195 145.603 42.3053 145.653 42.3775C145.71 42.4558 145.786 42.5181 145.874 42.5584L145.636 43.1094C145.472 43.0312 145.33 42.914 145.223 42.7682C145.138 42.653 145.085 42.5177 145.069 42.3758L145.201 42.5208H144.946L145.165 42.3843C145.061 42.5931 144.903 42.7699 144.707 42.8962C144.508 43.0349 144.27 43.1093 144.027 43.1094Z" fill="white"/>
<path d="M146.97 43.0513V39.1393H147.579V39.6682H147.68L147.492 39.9071C147.539 39.7544 147.615 39.612 147.715 39.4874C147.813 39.3624 147.937 39.261 148.079 39.1905C148.234 39.1149 148.406 39.0775 148.579 39.0813C148.646 39.0812 148.713 39.0869 148.78 39.0984C148.83 39.1025 148.88 39.114 148.927 39.1325L148.666 39.7399C148.634 39.7297 148.601 39.724 148.568 39.7228C148.388 39.6897 148.202 39.7257 148.046 39.8235C147.902 39.9062 147.784 40.028 147.705 40.1749C147.605 40.3723 147.558 40.5921 147.569 40.813V43.0513H146.97Z" fill="white"/>
<path d="M153.146 43.1095C152.941 43.1094 152.739 43.0736 152.547 43.0037C152.358 42.9358 152.178 42.8423 152.015 42.7256C151.863 42.6183 151.727 42.4915 151.609 42.3486L151.885 41.6968C151.984 41.8413 152.098 41.9745 152.226 42.0944C152.355 42.2148 152.499 42.3175 152.654 42.3997C152.799 42.475 152.959 42.5148 153.122 42.5158C153.274 42.5165 153.423 42.4751 153.554 42.3963C153.686 42.3154 153.796 42.2013 153.871 42.0654C153.952 41.9195 153.994 41.7547 153.99 41.5877C153.995 41.4318 153.953 41.2781 153.871 41.1458C153.784 41.0121 153.667 40.9005 153.53 40.8199C153.362 40.7164 153.185 40.629 153.001 40.5589C152.757 40.4655 152.527 40.3386 152.318 40.1819C152.136 40.0452 151.985 39.8706 151.876 39.67C151.771 39.4575 151.717 39.2229 151.72 38.9855C151.723 38.7482 151.782 38.515 151.893 38.3052C152.008 38.1042 152.177 37.9389 152.38 37.8275C152.597 37.7099 152.842 37.6511 153.089 37.6569C153.35 37.656 153.608 37.7143 153.844 37.8275C154.077 37.9368 154.284 38.095 154.451 38.2915L154.205 38.8852C154.11 38.7582 154 38.6436 153.876 38.544C153.761 38.4503 153.633 38.3744 153.495 38.3188C153.37 38.2691 153.236 38.2442 153.101 38.2455C153 38.2415 152.899 38.2596 152.805 38.2985C152.712 38.3374 152.628 38.3961 152.559 38.4707C152.423 38.6213 152.35 38.8187 152.356 39.0217C152.351 39.1375 152.372 39.2528 152.416 39.3598C152.461 39.4668 152.528 39.5627 152.613 39.641C152.821 39.8147 153.057 39.9509 153.311 40.0437C153.538 40.1292 153.754 40.2397 153.956 40.3729C154.152 40.4985 154.318 40.6671 154.439 40.866C154.568 41.0858 154.632 41.3379 154.623 41.5928C154.63 41.8709 154.56 42.1454 154.42 42.3861C154.293 42.6086 154.108 42.7926 153.884 42.9184C153.659 43.046 153.405 43.1119 153.146 43.1095Z" fill="white"/>
<path d="M156.979 43.1096C156.839 43.118 156.698 43.094 156.568 43.0392C156.438 42.9845 156.323 42.9006 156.23 42.794C156.051 42.5612 155.959 42.2723 155.973 41.9785V37.9727H156.582V41.9205C156.572 42.0832 156.615 42.2447 156.705 42.3811C156.739 42.4327 156.785 42.4752 156.839 42.505C156.893 42.5347 156.953 42.5508 157.015 42.5517C157.061 42.5514 157.107 42.5427 157.15 42.5261C157.194 42.5102 157.236 42.4896 157.276 42.4647L157.501 43.0004C157.442 43.0243 157.367 43.0499 157.28 43.0772C157.182 43.1023 157.08 43.1132 156.979 43.1096ZM155.37 39.6975V39.1328H157.408V39.6975H155.37Z" fill="white"/>
<path d="M159.822 43.1096C159.523 43.1148 159.231 43.0246 158.987 42.852C158.743 42.6706 158.554 42.4249 158.441 42.1423C158.307 41.8014 158.241 41.4373 158.249 41.0709C158.241 40.7122 158.306 40.3557 158.441 40.0234C158.555 39.7449 158.744 39.5037 158.987 39.3273C159.232 39.159 159.524 39.0719 159.822 39.0782C160.116 39.072 160.405 39.1592 160.647 39.3273C160.89 39.5035 161.078 39.7448 161.19 40.0234C161.328 40.355 161.394 40.7118 161.386 41.0709C161.394 41.4387 161.327 41.8044 161.19 42.1457C161.079 42.4284 160.891 42.6743 160.647 42.8554C160.406 43.0261 160.117 43.1152 159.822 43.1096ZM159.822 42.5449C159.962 42.5458 160.101 42.5093 160.223 42.4391C160.345 42.369 160.446 42.2677 160.516 42.1457C160.705 41.8215 160.796 41.4492 160.777 41.0743C160.795 40.7103 160.704 40.3491 160.516 40.037C160.445 39.9167 160.343 39.8172 160.221 39.7486C160.099 39.6801 159.961 39.6448 159.822 39.6463C159.681 39.6445 159.541 39.6796 159.418 39.7481C159.295 39.8166 159.192 39.9162 159.119 40.037C158.93 40.3491 158.84 40.7103 158.858 41.0743C158.84 41.448 158.93 41.819 159.119 42.1423C159.19 42.2655 159.292 42.3677 159.416 42.4384C159.539 42.5091 159.679 42.5459 159.822 42.5449Z" fill="white"/>
<path d="M162.526 43.0515V39.1395H163.133V39.6684H163.235L163.046 39.9073C163.095 39.7548 163.171 39.6126 163.271 39.4876C163.368 39.3631 163.492 39.2617 163.633 39.1907C163.789 39.1153 163.96 39.0779 164.133 39.0815C164.201 39.0814 164.269 39.0871 164.336 39.0986C164.386 39.1023 164.435 39.1139 164.481 39.1327L164.228 39.7401C164.196 39.7298 164.163 39.724 164.129 39.723C163.952 39.6921 163.77 39.7279 163.618 39.8237C163.473 39.9064 163.355 40.0282 163.276 40.1751C163.176 40.3723 163.128 40.5921 163.138 40.8132V43.0515H162.526Z" fill="white"/>
<path d="M166.555 43.1094C166.259 43.1125 165.969 43.0224 165.726 42.8518C165.479 42.67 165.287 42.4231 165.172 42.1387C164.918 41.4573 164.912 40.7085 165.155 40.0231C165.258 39.7484 165.435 39.5075 165.667 39.3271C165.891 39.1712 166.157 39.0856 166.43 39.081C166.704 39.0764 166.972 39.1532 167.202 39.3015C167.424 39.4612 167.597 39.6798 167.702 39.9327C167.823 40.2338 167.882 40.5567 167.872 40.8813C167.873 40.9639 167.869 41.0465 167.861 41.1287C167.861 41.202 167.85 41.2737 167.843 41.3385H165.431V40.8267H167.287C167.3 40.5266 167.223 40.2296 167.066 39.9737C167.001 39.8699 166.911 39.7849 166.803 39.7271C166.696 39.6693 166.575 39.6408 166.453 39.6444C166.274 39.6388 166.1 39.7037 165.969 39.8252C165.823 39.9658 165.718 40.1424 165.663 40.3371C165.592 40.5809 165.558 40.8339 165.562 41.0877C165.557 41.3509 165.597 41.613 165.682 41.8623C165.746 42.061 165.864 42.2381 166.023 42.3741C166.175 42.4952 166.365 42.5591 166.559 42.5549C166.708 42.5522 166.855 42.5227 166.994 42.4679C167.148 42.4092 167.29 42.3231 167.414 42.2137L167.639 42.7648C167.483 42.8776 167.31 42.9656 167.127 43.0258C166.942 43.0842 166.749 43.1125 166.555 43.1094Z" fill="white"/>
<path fill-rule="evenodd" clip-rule="evenodd" d="M197.742 41.2379H171.962V40.866H197.742V41.2379Z" fill="white"/>
<path fill-rule="evenodd" clip-rule="evenodd" d="M24.49 1.02769C19.5369 2.16155 15.4003 6.06783 13.1112 9.35028L12.5302 8.94868C14.8769 5.59126 19.146 1.53103 24.336 0.342284C27.1356 -0.313539 30.0736 -0.0216172 32.6894 1.17227C35.6037 2.46945 38.5796 4.92058 41.5033 8.94332L40.9303 9.35965C38.0602 5.41321 35.174 3.05446 32.4016 1.82019C29.9252 0.686002 27.1421 0.407216 24.49 1.02769Z" fill="white"/>
<path fill-rule="evenodd" clip-rule="evenodd" d="M0.0496619 43.6875L9.18885 9.55105C9.27457 9.23213 9.46311 8.95039 9.72522 8.74951C9.98734 8.54863 10.3084 8.43982 10.6386 8.43994H14.3294C14.6031 8.43998 14.8716 8.51483 15.1059 8.65639C15.3402 8.79796 15.5314 9.00085 15.6587 9.24315L19.751 17.0651C20.1982 17.9205 19.731 18.9821 18.8662 19.4118C15.1969 21.2351 10.2718 26.223 10.9238 36.3488V44.0703C10.924 44.2673 10.8853 44.4624 10.81 44.6445C10.7348 44.8266 10.6244 44.992 10.4851 45.1314C10.3459 45.2707 10.1805 45.3813 9.99853 45.4567C9.81654 45.5322 9.62146 45.571 9.42446 45.571H1.49945C1.26986 45.5708 1.04336 45.5179 0.837408 45.4165C0.631453 45.315 0.451527 45.1676 0.311483 44.9857C0.171439 44.8037 0.0750107 44.5921 0.0296192 44.367C-0.0157723 44.1419 -0.00891523 43.9095 0.0496619 43.6875ZM12.8247 10.9031C12.9788 10.9031 13.1294 10.8574 13.2576 10.7718C13.3857 10.6862 13.4855 10.5645 13.5445 10.4222C13.6035 10.2798 13.6189 10.1231 13.5889 9.97201C13.5588 9.82087 13.4846 9.68205 13.3756 9.57309C13.2667 9.46413 13.1278 9.38992 12.9767 9.35986C12.8256 9.3298 12.6689 9.34523 12.5266 9.4042C12.3842 9.46317 12.2625 9.56303 12.1769 9.69115C12.0913 9.81928 12.0456 9.96991 12.0456 10.124C12.0456 10.3306 12.1277 10.5288 12.2738 10.6749C12.4199 10.821 12.6181 10.9031 12.8247 10.9031Z" fill="white"/>
<path fill-rule="evenodd" clip-rule="evenodd" d="M53.9798 43.6875L44.8406 9.55105C44.7549 9.23213 44.5664 8.9504 44.3043 8.74951C44.0421 8.54863 43.7211 8.43982 43.3908 8.43994H39.7014C39.4275 8.43974 39.1587 8.51447 38.9241 8.65605C38.6896 8.79762 38.4982 9.00065 38.3708 9.24315L34.2784 17.0691C33.8313 17.9245 34.2985 18.9861 35.1633 19.4158C38.8326 21.2391 43.7576 26.227 43.1044 36.3528V44.0703C43.1044 44.4683 43.2625 44.85 43.5439 45.1315C43.8253 45.4129 44.207 45.571 44.605 45.571H52.53C52.7596 45.5708 52.9861 45.5179 53.1921 45.4165C53.398 45.315 53.5779 45.1676 53.718 44.9857C53.858 44.8037 53.9545 44.5921 53.9999 44.367C54.0452 44.1419 54.0384 43.9095 53.9798 43.6875ZM41.2048 10.9031C41.0507 10.9031 40.9 10.8574 40.7719 10.7718C40.6438 10.6862 40.5439 10.5645 40.485 10.4222C40.426 10.2798 40.4106 10.1231 40.4406 9.97201C40.4707 9.82087 40.5449 9.68205 40.6539 9.57309C40.7628 9.46413 40.9016 9.38992 41.0528 9.35986C41.2039 9.3298 41.3606 9.34523 41.5029 9.4042C41.6453 9.46317 41.767 9.56303 41.8526 9.69115C41.9382 9.81928 41.9839 9.96991 41.9839 10.124C41.9839 10.3306 41.9018 10.5288 41.7557 10.6749C41.6096 10.821 41.4114 10.9031 41.2048 10.9031Z" fill="white"/>
<path fill-rule="evenodd" clip-rule="evenodd" d="M27.1299 21.3208C21.7617 21.3208 17.395 25.7385 17.395 31.1748C17.395 37.9124 26.1058 47.8187 26.4793 48.235C26.5609 48.3274 26.6613 48.4013 26.7736 48.452C26.886 48.5027 27.0079 48.5289 27.1312 48.5289C27.2545 48.5289 27.3764 48.5027 27.4887 48.452C27.6011 48.4013 27.7015 48.3274 27.7831 48.235C28.1526 47.8187 36.8634 37.9124 36.8634 31.1748C36.8634 25.7411 32.5033 21.3208 27.1299 21.3208ZM27.1299 32.3221C27.8447 32.3221 28.5435 32.1101 29.1379 31.7129C29.7323 31.3158 30.1956 30.7513 30.4692 30.0908C30.7427 29.4304 30.8143 28.7036 30.6748 28.0025C30.5354 27.3014 30.1911 26.6573 29.6857 26.1519C29.1802 25.6464 28.5361 25.3021 27.835 25.1627C27.1339 25.0232 26.4071 25.0948 25.7467 25.3683C25.0862 25.6419 24.5217 26.1052 24.1246 26.6996C23.7274 27.294 23.5154 27.9928 23.5154 28.7077C23.5154 29.6663 23.8962 30.5856 24.5741 31.2634C25.2519 31.9413 26.1712 32.3221 27.1299 32.3221Z" fill="white"/>
</svg>
